<?xml version="1.0" encoding="utf-8"?>
<!-- Generator: Adobe Illustrator 19.2.1, SVG Export Plug-In . SVG Version: 6.00 Build 0)  -->
<svg version="1.1" id="layer" xmlns="http://www.w3.org/2000/svg" xmlns:xlink="http://www.w3.org/1999/xlink" x="0px" y="0px"
	 viewBox="0 0 652 652" style="enable-background:new 0 0 652 652;" xml:space="preserve">
<style type="text/css">
	.st0{fill:#A3A4A6;}
	.st1{fill:#005DAA;}
</style>
<g>
	<path class="st0" d="M29.4,364.9c0-10.7,6-13.2,16-13.2h13.1c15.9,0,18,3.4,17.9,13.7H65.3v-1c0-2.6-1.9-3.4-5.2-3.4H47.9
		c-5.9,0-7,2.8-7,7.3v3.9c0,5.3,1.1,7.3,6.4,7.3h11.9c5,0,6.5-0.5,6.5-5h11.2v3.4c0,6.1-2.2,11-13.4,11h-18c-10.1,0-16-2.5-16-13.2
		V364.9z M88.4,364.9c0-10.7,6-13.2,16.1-13.2h17.9c10.1,0,16,2.5,16,13.2v10.9c0,10.7-6,13.2-16,13.2h-17.9
		c-10.1,0-16.1-2.5-16.1-13.2V364.9z M99.9,372.3c0,5.3,1.1,7.3,6.4,7.3h14.3c5.3,0,6.4-2,6.4-7.3v-3.9c0-4.5-1.1-7.3-7-7.3h-13.1
		c-5.9,0-7,2.8-7,7.3V372.3z M162.5,370h18.5c3,0,4.1-1.2,4.1-3.8V365c0-3.2-1.6-3.8-5.1-3.8h-17.5V370z M151.3,352.1H185
		c8.6,0,10.9,4.3,10.9,10.8v2.3c0,4.9-1.1,7.7-6.2,8.9v0.1c3.3,0.6,6.1,2.1,6.1,8.1v6.2h-11.2v-4.4c0-3.8-1.1-5.1-4.6-5.1h-17.6v9.5
		h-11.2V352.1z M210,352.1h30.4c10.6,0,13.2,5.3,13.2,12.5v3.1c0,5.4-2.4,11.7-10.3,11.7h-22.2v9.1H210V352.1z M221.1,370.3h17.4
		c2.6,0,3.6-1.7,3.6-3.9V365c0-2.5-1.2-3.9-4.6-3.9h-16.4V370.3z M264.4,364.9c0-10.7,6-13.2,16-13.2h17.9c10.1,0,16,2.5,16,13.2
		v10.9c0,10.7-6,13.2-16,13.2h-17.9c-10.1,0-16-2.5-16-13.2V364.9z M275.9,372.3c0,5.3,1.1,7.3,6.4,7.3h14.3c5.3,0,6.4-2,6.4-7.3
		v-3.9c0-4.5-1.1-7.3-7-7.3h-13.1c-5.9,0-7,2.8-7,7.3V372.3z M337.2,370h18.5c3,0,4.1-1.2,4.1-3.8V365c0-3.2-1.6-3.8-5.1-3.8h-17.5
		V370z M326,352.1h33.7c8.6,0,10.9,4.3,10.9,10.8v2.3c0,4.9-1.1,7.7-6.2,8.9v0.1c3.3,0.6,6.1,2.1,6.1,8.1v6.2h-11.2v-4.4
		c0-3.8-1.1-5.1-4.6-5.1h-17.6v9.5H326V352.1z M399.3,352.1h14.5l20,36.4h-12.4l-3.5-6.4h-22.6l-3.3,6.4h-12.5L399.3,352.1z
		 M399.5,374.2h14.3l-7.2-13.7L399.5,374.2z M435.2,361.2h15.7v27.4h11.2v-27.4h15.7v-9.1h-42.6V361.2z M488.2,388.5h11.2v-36.4
		h-11.2V388.5z M511.9,364.9c0-10.7,6-13.2,16.1-13.2h17.9c10.1,0,16.1,2.5,16.1,13.2v10.9c0,10.7-6,13.2-16.1,13.2h-17.9
		c-10.1,0-16.1-2.5-16.1-13.2V364.9z M523.3,372.3c0,5.3,1.1,7.3,6.4,7.3H544c5.3,0,6.4-2,6.4-7.3v-3.9c0-4.5-1.1-7.3-7-7.3h-13.1
		c-5.9,0-7,2.8-7,7.3V372.3z M612.3,352.1v26.5h-0.1l-21-26.5h-17.3v36.4H585v-26.5h0.1l21,26.5h17.3v-36.4H612.3z"/>
	<path class="st1" d="M26.4,289c0-21.3,12-26.4,32.1-26.4h33.6c25.4,0,28.9,9.2,28.9,23.4v2.3H99.1c0-7.2-4.1-8.2-11.3-8.2H63.6
		c-11.3,0-14.2,2.7-14.2,15.2v9.1c0,12.5,2.9,15.2,14.2,15.2h23.9c5.8,0,11.7-0.9,11.7-8v-2.1H71.3v-15.1h50.1v20.7
		c0,20.9-10.9,21.9-36,21.9H58.5c-20.1,0-32.1-5-32.1-26.4V289z M134.7,336.3h81v-17.5H157v-11.7h54.4V292H157v-11.7h57.4v-16.9
		h-79.7V336.3z M226.8,336.3h22.3v-52.9h0.2l42,52.9H326v-72.9h-22.3v52.9h-0.2l-42-52.9h-34.6V336.3z M335.6,281.5H367v54.8h22.3
		v-54.8h31.4v-18.1h-85.2V281.5z M430.6,336.3h81v-17.5H453v-11.7h54.4V292H453v-11.7h57.4v-16.9h-79.7V336.3z M518.3,336.3h30
		l24.1-26.5l24.1,26.5h30l-35.7-36.5l33.2-36.3H595l-22.6,25.5l-22.6-25.5h-28.9l33.2,36.3L518.3,336.3z"/>
</g>
</svg>
